# xmcd
#
# Track frame offsets: 
#        182
#        18680
#        34585
#        58762
#        71895
#        84410
#        95065
#        111662
#        127532
#        140017
#        157985
#        175502
#        186730
#        202320
#
# Disc length: 2928 seconds
#
# Revision: 3
# Processed by: cddbd v1.5.2PL0 Copyright (c) Steve Scherf et al.
# Submitted via: ExactAudioCopy v0.90b4
#
DISCID=d00b6e0e
DTITLE=Milton Nascimento - Personalidade
DYEAR=1987
DGENRE=MPB
TTITLE0=Nos Bailes Da Vida
TTITLE1=Certas Canções
TTITLE2=Para Lennon E McCartney
TTITLE3=Cantiga (Caicó)
TTITLE4=Raça
TTITLE5=Sonho De Moço
TTITLE6=Caçador De Mim
TTITLE7=A Noite Do Meu Bem (Ao Vivo)
TTITLE8=Roupa Nova
TTITLE9=Travessia
TTITLE10=Coração De Estudante (Ao Vivo)
TTITLE11=Solar (Ao Vivo)
TTITLE12=Encontros E Despedidas
TTITLE13=Canção Da América
EXTD=
EXTT0=
EXTT1=
EXTT2=
EXTT3=
EXTT4=
EXTT5=
EXTT6=
EXTT7=
EXTT8=
EXTT9=
EXTT10=
EXTT11=
EXTT12=
EXTT13=
PLAYORDER=
